<?xml version="1.0" encoding="utf-8"?>
<!-- Generator: Adobe Illustrator 21.0.0, SVG Export Plug-In . SVG Version: 6.00 Build 0)  -->
<svg version="1.1" id="Layer_1" xmlns="http://www.w3.org/2000/svg" xmlns:xlink="http://www.w3.org/1999/xlink" x="0px" y="0px"
	 viewBox="0 0 66.2 48.6" style="enable-background:new 0 0 66.2 48.6;" xml:space="preserve">
<style type="text/css">
	.st0{enable-background:new    ;}
	.st1{fill:url(#SVGID_1_);}
	.st2{fill:url(#SVGID_2_);}
	.st3{fill:url(#SVGID_3_);}
	.st4{fill:url(#SVGID_4_);}
	.st5{fill:url(#SVGID_5_);}
	.st6{fill:url(#SVGID_6_);}
	.st7{fill:url(#SVGID_7_);}
	.st8{fill:url(#SVGID_8_);}
	.st9{fill:url(#SVGID_9_);}
	.st10{fill:url(#SVGID_10_);}
</style>
<title>ash-logo</title>
<g>
	<g class="st0">
		<radialGradient id="SVGID_1_" cx="6.719" cy="12.2207" r="6.5654" gradientUnits="userSpaceOnUse">
			<stop  offset="0" style="stop-color:#E4E2DD"/>
			<stop  offset="0.9988" style="stop-color:#E08655"/>
		</radialGradient>
		<path class="st1" d="M11.1,14.4c-1.8,3.3-4.6,5.9-7.7,4.8c-1.8-0.7-2.5-2.3-2.5-4.2c0-4.8,4.2-8.9,6.7-9.8c1.3-0.4,2.4-0.2,3,0.4
			C13.4,6.9,12.8,11.3,11.1,14.4z M10.2,6.2c-1.1-0.4-3.9,1.1-6,4.4C2,13.9,2,17.7,3.5,18.3c1.5,0.6,4.1-1.2,6-4.6
			C11.5,10,11.4,6.6,10.2,6.2z"/>
	</g>
	<g class="st0">
		<radialGradient id="SVGID_2_" cx="16.7377" cy="14.7488" r="4.8614" gradientUnits="userSpaceOnUse">
			<stop  offset="0" style="stop-color:#E4E2DD"/>
			<stop  offset="0.9988" style="stop-color:#E08655"/>
		</radialGradient>
		<path class="st2" d="M13.1,19.3c-1.6-0.1-1.6-1.8-1.1-3.2c0.5-1.5,1.6-3.7,3.1-5.7c0.2-0.2,0.4-0.2,0.6,0c0.5,0.7,0.4,1.7-0.4,3
			c-0.8,1.3-1.3,2.2-1.7,3.3c-0.5,1.1-0.4,1.9,0.1,1.9c0.9,0.1,2.1-1.5,3.3-3.4c1.4-2.3,2.1-3.8,2.8-4.8c0.2-0.3,0.4-0.4,0.6-0.1
			c0.3,0.4,0.5,1.4,0,2.5c-0.5,1-1.6,2.7-2.1,3.8c-0.6,1.3-0.5,2.2,0.3,2.2c0.9,0,2.1-1.5,3-3.1c0.1-0.2,0.3-0.2,0.4,0
			c0.1,0.2,0.1,0.8-0.2,1.4c-0.6,1.3-2,2.4-3.4,2.4c-1.5,0-2-0.9-1.9-2.2C15.5,18.3,14.4,19.4,13.1,19.3z"/>
		<radialGradient id="SVGID_3_" cx="24.4024" cy="12.781" r="5.2343" gradientUnits="userSpaceOnUse">
			<stop  offset="0" style="stop-color:#E4E2DD"/>
			<stop  offset="0.9988" style="stop-color:#E08655"/>
		</radialGradient>
		<path class="st3" d="M22.3,9.7c-0.2-0.3-0.1-0.5,0.2-0.4c0.6,0,1.3,0,1.9-0.1c0.7-1.2,1.3-2.3,1.7-2.8c0.2-0.3,0.4-0.3,0.5,0
			c0.2,0.6,0.2,1.4-0.3,2.5c0.9,0,1.2,0.4,1.4,0.7c0.2,0.3,0.1,0.4-0.3,0.4c-0.5-0.1-1.2,0-1.7,0.1c-0.9,1.5-2.1,3.7-3,5.5
			c-0.7,1.6-0.5,3,0.4,3.1c1,0,2.3-1.5,3.1-3.2c0.1-0.3,0.4-0.3,0.5,0c0.1,0.4,0,0.8-0.2,1.3c-0.3,0.6-1.8,2.6-3.6,2.5
			c-1.5,0-2.7-1.7-1.6-4.3c0.5-1.1,1.4-3,2.4-4.8C23,10.3,22.5,10,22.3,9.7z"/>
	</g>
</g>
<radialGradient id="SVGID_4_" cx="20.6724" cy="25.9974" r="3.3882" gradientUnits="userSpaceOnUse">
	<stop  offset="0" style="stop-color:#E4E2DD"/>
	<stop  offset="0.9988" style="stop-color:#E08655"/>
</radialGradient>
<path class="st4" d="M23.2,25.7c-0.4,1.5-1.5,3.4-2.9,3.8c-0.9,0.3-1.8,0-2.3-0.8c-0.8-1-0.5-2.6,0.3-4c0.5-1.2,1.6-2.1,2.9-2.3
	c0.5-0.1,1,0.2,1.2,0.6c0.4,0.6,1,0.7,0.9,2v0.4c0,0.1,0.2,0,0.4,0s0.1,0.1,0,0.2C23.5,25.7,23.3,25.7,23.2,25.7z M21.6,25.2
	c-0.5-0.4-0.8-0.9-0.8-1.5c-0.6,0.5-1,1-1.4,1.7c-0.8,1.4-1,3-0.6,3.4s1.6-0.2,2.5-1.9c0.3-0.5,0.5-0.9,0.6-1.4
	C21.9,25.4,21.8,25.3,21.6,25.2L21.6,25.2z M22.2,23.6c-0.1-0.6-0.5-0.5-0.5,0c-0.1,0.5,0,1,0.4,1.4C22.2,24.6,22.3,24.1,22.2,23.6
	L22.2,23.6z"/>
<radialGradient id="SVGID_5_" cx="26.0696" cy="26.6617" r="6.6204" gradientUnits="userSpaceOnUse">
	<stop  offset="0" style="stop-color:#E4E2DD"/>
	<stop  offset="0.9988" style="stop-color:#E08655"/>
</radialGradient>
<path class="st5" d="M26.3,28.1v0.6c0.8-0.6,1.4-1.4,1.9-2.3c0.1-0.2,0.3-0.2,0.4,0c0.1,0.4,0,0.7-0.2,1.1c-0.5,0.9-1.2,1.5-2.2,1.9
	c-0.3,1.8-1,3.4-2,4.9c-0.6,0.8-1.1,0.8-1.6,0.4c-0.7-0.7-1-1.7-0.8-2.6c0.4-1.8,1-3.4,1.9-5c1-2.3,2.2-4.6,3.4-6.8
	c0.2-0.4,0.4-0.7,0.6-1.1c0.1-0.3,0.3-0.5,0.6-0.7c0.1,0,0.1-0.1,0.2-0.1c0.4-0.1,0.8,0,1.2,0.2c0.2,0.1,0.6,0.2,0.7,0.5
	c-0.3,0-0.7,0-1,0c-0.3,0.1-0.5,0.3-0.6,0.6c-0.1,0.2-0.3,0.4-0.4,0.6c-0.5,0.8-1,2.2-2.1,4.2c-0.1,0.1-0.8,1.6-0.8,1.5
	C26.1,26.2,26.3,26.9,26.3,28.1z M22.8,34c0.4,0.5,1.8-2,2.4-4.4c-0.5,0-0.9-0.3-1.1-0.7C23.1,31.2,22.4,33.4,22.8,34z M25.5,27.7
	c0-0.7-0.2-1.2-0.3-1.2c-0.2,0.5-0.3,1-0.4,1.5c0,0.6,0.1,1,0.5,1C25.4,28.6,25.4,28.1,25.5,27.7z"/>
<g>
	<g class="st0">
		<radialGradient id="SVGID_6_" cx="33.1948" cy="30.9511" r="6.7061" gradientUnits="userSpaceOnUse">
			<stop  offset="0" style="stop-color:#E4E2DD"/>
			<stop  offset="0.9988" style="stop-color:#E08655"/>
		</radialGradient>
		<path class="st6" d="M29.4,35.1c0.9,0.7,2.4,1.9,3.9,1.9c0.6,0,1.1-0.2,1.4-0.4c0.4-0.4,0.3-0.9,0-1.2c-1.2-1-4.7-2.4-4.7-4.7
			c0-3.1,3.5-5.7,5.5-6.5c1.1-0.4,2.1-0.6,2.9,0c0.6,0.5,1,1.3,1.1,1.9c0.2,0.9-0.3,1.8-0.6,2.2c-0.6,0.8-1.2,1.9-1.5,2.5
			c-0.1,0.2-0.2,0.3-0.5,0.1c-0.4-0.4-0.7-1.1-0.2-2.2c0.5-1.1,2.1-2.9,1.6-3.5c-0.8-0.8-6.3,2.6-6.4,5.4c-0.1,1.5,2.8,2.6,4,3.5
			c0.8,0.6,0.7,1.6-0.2,2.8c-1.3,1.5-5.2,2-8.4-1.8c-0.2-0.3-0.2-0.4,0-0.5C27.9,34.4,28.8,34.6,29.4,35.1z"/>
	</g>
	<g class="st0">
		<radialGradient id="SVGID_7_" cx="40.0657" cy="32.3335" r="4.4425" gradientUnits="userSpaceOnUse">
			<stop  offset="0" style="stop-color:#E4E2DD"/>
			<stop  offset="0.9988" style="stop-color:#E08655"/>
		</radialGradient>
		<path class="st7" d="M37.6,34.7c0.6-1.6,2-4.3,2.9-5.4c0.2-0.3,0.4-0.3,0.5-0.1c0.3,0.4,0.5,1.3,0,2.4c-0.5,1-1.4,2.5-1.9,3.6
			c-0.5,1.3-0.5,2.2,0.2,2.1c1,0,2.2-1.5,2.9-3.1c0.1-0.2,0.3-0.2,0.4,0c0.2,0.4,0.1,0.8-0.2,1.4C41.7,37,40.3,38,39.1,38
			C37.4,38,36.9,36.5,37.6,34.7z M42.5,28.9c-0.3,0.3-0.9,0.2-1.3-0.3c-0.4-0.6-0.2-1.3,0.1-1.7c0.4-0.4,1-0.1,1.3,0.5
			C43,28,42.8,28.6,42.5,28.9z"/>
		<radialGradient id="SVGID_8_" cx="46.0656" cy="37.3627" r="7.2471" gradientUnits="userSpaceOnUse">
			<stop  offset="0" style="stop-color:#E4E2DD"/>
			<stop  offset="0.9988" style="stop-color:#E08655"/>
		</radialGradient>
		<path class="st8" d="M46.9,38.5c-1.2,3-2.8,6.5-4.6,7.3c-0.4,0.2-0.9,0.1-1.3-0.5c-0.5-0.7-0.9-1.5-0.4-2.8c0.6-2,2.6-3.4,4.8-4.2
			c0.2-0.5,0.4-1,0.6-1.5c-0.6,0.6-1.4,1.1-2.3,1.1c-2.1,0-2.5-2.8-0.6-5.5c1.7-2.6,3.6-3.6,4.7-3.6c0.9,0,1.3,0.7,1.3,1.5
			c0.3-0.4,0.5-0.8,0.7-1.2c0.2-0.3,0.4-0.3,0.6-0.1c0.3,0.4,0.5,1.4,0,2.5c-0.7,1.3-2.1,4-3,6.2c1.9-0.9,3.1-2.2,4-3.4
			c0.1-0.2,0.3-0.2,0.4,0c0,0.2-0.1,0.7-0.4,1.3C50.4,37,48.8,37.9,46.9,38.5z M41.5,44.6c0.3,0.4,2.1-1.9,3.5-5.3
			C42.1,41,41.1,44,41.5,44.6z M48.1,30c-0.7,0-2.3,1.4-3.6,3.3c-1.2,1.9-1.5,3.9-0.6,3.9c0.9,0,2-1.4,3.2-3.4
			C48.6,31.4,48.8,30,48.1,30z"/>
		<radialGradient id="SVGID_9_" cx="55.2253" cy="30.4264" r="6.3922" gradientUnits="userSpaceOnUse">
			<stop  offset="0" style="stop-color:#E4E2DD"/>
			<stop  offset="0.9988" style="stop-color:#E08655"/>
		</radialGradient>
		<path class="st9" d="M56.6,38c-1.9,0-2.3-1.4-1.7-3.3c0.7-2.2,2.7-4.5,2.3-4.7c-0.3-0.2-2.8,1.3-4,3.5c-0.8,1.3-1.6,2.9-2.2,4.2
			c-0.1,0.2-0.2,0.2-0.4,0.1c-0.4-0.4-0.6-1-0.1-2.4c0.8-2.2,5.4-10.1,7.2-12.4c0.2-0.3,0.4-0.2,0.5,0c0.3,0.6,0.2,1.8-0.6,3.2
			C57.2,27.1,56,29,55,30.5c0.9-0.9,2.1-1.6,2.7-1.6c0.8,0.1,1.5,1.2,0.9,2.3c-0.5,1-1.6,2.6-2.1,3.8c-0.6,1.3-0.4,2.3,0.4,2.3
			c0.9,0,2.1-1.7,2.8-3.1c0.1-0.2,0.3-0.2,0.4,0c0.1,0.2,0.1,0.7-0.2,1.4C59.3,36.9,57.9,38,56.6,38z"/>
		<radialGradient id="SVGID_10_" cx="62.8288" cy="31.4011" r="5.2343" gradientUnits="userSpaceOnUse">
			<stop  offset="0" style="stop-color:#E4E2DD"/>
			<stop  offset="0.9988" style="stop-color:#E08655"/>
		</radialGradient>
		<path class="st10" d="M60.7,28.4c-0.2-0.3-0.1-0.5,0.2-0.4c0.6,0,1.3,0,1.9-0.1c0.7-1.2,1.3-2.3,1.7-2.8c0.2-0.3,0.4-0.3,0.5,0
			c0.2,0.6,0.2,1.4-0.3,2.5c0.9,0,1.2,0.4,1.4,0.7c0.2,0.3,0.1,0.4-0.3,0.4c-0.5-0.1-1.2,0-1.7,0.1c-0.9,1.5-2.1,3.7-3,5.5
			c-0.7,1.6-0.5,3,0.4,3.1c1,0,2.3-1.5,3.1-3.2c0.1-0.3,0.4-0.3,0.5,0c0.1,0.4,0,0.8-0.2,1.3c-0.3,0.6-1.8,2.6-3.6,2.5
			c-1.5,0-2.7-1.7-1.6-4.3c0.5-1.1,1.4-3,2.4-4.8C61.4,28.9,60.9,28.6,60.7,28.4z"/>
	</g>
</g>
</svg>
